<?xml version="1.0" encoding="UTF-8" standalone="no"?>
<!-- Created with Inkscape (http://www.inkscape.org/) -->

<svg
   width="512"
   height="512"
   viewBox="0 0 135.46666 135.46667"
   version="1.1"
   id="svg1821"
   inkscape:version="1.2 (dc2aedaf03, 2022-05-15)"
   sodipodi:docname="gun.svg"
   xmlns:inkscape="http://www.inkscape.org/namespaces/inkscape"
   xmlns:sodipodi="http://sodipodi.sourceforge.net/DTD/sodipodi-0.dtd"
   xmlns="http://www.w3.org/2000/svg"
   xmlns:svg="http://www.w3.org/2000/svg">
  <sodipodi:namedview
     id="namedview1823"
     pagecolor="#ffffff"
     bordercolor="#000000"
     borderopacity="0.25"
     inkscape:showpageshadow="2"
     inkscape:pageopacity="0.0"
     inkscape:pagecheckerboard="0"
     inkscape:deskcolor="#d1d1d1"
     inkscape:document-units="px"
     showgrid="false"
     inkscape:zoom="0.76880612"
     inkscape:cx="-3.9021542"
     inkscape:cy="52.028722"
     inkscape:window-width="1920"
     inkscape:window-height="1017"
     inkscape:window-x="-8"
     inkscape:window-y="-8"
     inkscape:window-maximized="1"
     inkscape:current-layer="layer1" />
  <defs
     id="defs1818" />
  <g
     inkscape:label="Слой 1"
     inkscape:groupmode="layer"
     id="layer1">
    <g
       id="g1816"
       transform="translate(1337.4444,-3.6250656)"
       style="stroke-width:0;stroke-dasharray:none">
      <g
         id="g15691"
         transform="translate(-0.37417734,1.122532)"
         style="stroke-width:0;stroke-dasharray:none">
        <rect
           style="fill:none;stroke:#000000;stroke-width:0;stroke-dasharray:none"
           id="rect2372"
           width="134.61867"
           height="134.61868"
           x="-1336.4667"
           y="3.0250995" />
        <rect
           style="fill:#483e37;stroke:#ff9955;stroke-width:0;stroke-dasharray:none"
           id="rect13761"
           width="3.9688101"
           height="4.612617"
           x="-1276.9525"
           y="57.505356"
           ry="0.37925965" />
        <rect
           style="fill:#483e37;stroke:#ff9955;stroke-width:0;stroke-dasharray:none"
           id="rect1107"
           width="3.9687295"
           height="5.9355288"
           x="-1247.8483"
           y="61.460648"
           ry="0.4880324" />
        <path
           id="rect1167"
           style="fill:#803300;stroke:#ff9955;stroke-width:0;stroke-dasharray:none"
           d="m -1263.1942,65.08925 h 16.7869 l -0.3886,10.601734 -16.3983,-0.01654 z"
           sodipodi:nodetypes="ccccc" />
        <path
           id="rect1113"
           style="fill:#333333;stroke:#ff9955;stroke-width:0;stroke-dasharray:none"
           d="m -1271.3962,68.882411 h 2.6458 c -0.384,1.44935 -0.312,2.89869 0,4.34804 h -2.6458 z"
           sodipodi:nodetypes="ccccc" />
        <path
           id="rect11733"
           style="fill:#4d4d4d;stroke:#ff9955;stroke-width:0;stroke-dasharray:none"
           d="m -1269.5442,68.882441 h 0.7938 c -0.3228,1.44935 -0.3497,2.8987 0,4.34805 h -0.7938 c -0.5897,-1.49749 -0.6308,-2.9502 0,-4.34805 z"
           sodipodi:nodetypes="ccccc" />
        <path
           style="fill:#666666;stroke:#ff9955;stroke-width:0;stroke-dasharray:none"
           d="m -1280.3244,65.182941 16.1708,-0.005 v -5.77447 h -13.4711 l -2.4862,4.36474 z"
           id="path3058"
           sodipodi:nodetypes="cccccc" />
        <path
           id="path1738"
           style="fill:#483e37;stroke:#ff9955;stroke-width:0;stroke-dasharray:none"
           d="m -1280.2411,64.763791 c -0.1423,0.24911 -0.2689,3.07684 -0.2689,3.07684 l 2.6335,0.8897 0.6406,1.49462 -2.1709,1.88621 c -2.3352,1.93965 -2.7676,2.8195 -3.7011,5.51604 l 0.071,1.92176 4.3264,3.29243 1.4744,1.12045 c 1.0036,-0.72375 1.9626,-1.30622 2.0616,-1.5708 0.08,-0.21425 -0.024,-0.64352 -0.069,-0.99155 l -0.5338,-0.64059 2.7047,-5.01778 0.071,-1.45908 1.1388,-0.96094 c 2.1478,0.93571 3.6565,0.55848 5.8364,0.0712 l 1.9217,0.56935 1.1744,-2.0641 -0.071,-3.80785 -0.071,-3.21917 z m 14.1797,4.78502 c 0.9452,1.32491 0.8099,1.61527 0.109,2.96186 -2.8176,0.76425 -2.6248,0.66839 -5.1625,-0.29273 -0.2419,-0.89525 -0.1788,-1.77356 0.2135,-2.63358 z"
           sodipodi:nodetypes="cccccccccscccccccccccccccc" />
        <rect
           style="fill:#483e37;stroke:#ff9955;stroke-width:0;stroke-dasharray:none"
           id="rect1111"
           width="1.6922739"
           height="1.9667889"
           x="-1279.5983"
           y="60.944962"
           ry="0.16171376" />
        <path
           style="fill:#6c5d53;fill-opacity:1;stroke:#ff9955;stroke-width:0;stroke-dasharray:none"
           d="m -1282.4436,76.840951 6.1043,4.31398 1.0542,0.78159 -0.088,-0.52092 -0.5757,-0.66631 2.5026,-5.26926 0.053,-1.5327 1.7324,-1.08345 v -3.80529 h 7.6223 v -4.36024 h -15.9082 l -0.1962,2.80112 2.3386,0.57407 1.0022,2.20063 -4.6905,4.25453 z"
           id="path12611"
           sodipodi:nodetypes="ccccccccccccccccc" />
        <path
           style="fill:#808080;stroke:#ff9955;stroke-width:0;stroke-dasharray:none"
           d="m -1280.287,64.913691 h 18.8429 v -5.50989 h -16.1806 l -2.4862,4.16476 z"
           id="path11731"
           sodipodi:nodetypes="cccccc" />
        <path
           id="rect4765"
           style="fill:#ac9d93;stroke:#ff9955;stroke-width:0;stroke-dasharray:none"
           d="m -1278.0274,60.068501 h 13.9402 l 0.033,3.5388 -16.0599,-0.0324 z"
           sodipodi:nodetypes="ccccc" />
        <path
           id="path3060"
           style="fill:#c87137;stroke:#ff9955;stroke-width:0;stroke-dasharray:none"
           d="m -1264.1747,58.730421 v 15.55175 h 2.0298 c 0.2235,-3.51681 0.2284,-4.45557 0.4295,-8.17499 l 12.9642,-0.0355 v 8.98054 h 2e-4 l -0.023,0.6433 h 2.0113 l 1.5602,-6.32431 v -10.64074 z"
           sodipodi:nodetypes="cccccccccccc" />
        <rect
           style="fill:#483e37;stroke:#ff9955;stroke-width:0;stroke-dasharray:none"
           id="rect1109"
           width="3.9688101"
           height="4.612617"
           x="-1250.4941"
           y="57.505356"
           ry="0.37925965" />
        <path
           style="fill:#c8beb7;fill-opacity:1;stroke:#ff9955;stroke-width:0;stroke-dasharray:none"
           d="m -1277.6209,59.373581 13.4771,0.0396 v 0.70028 h -13.8735 z"
           id="path12117" />
        <rect
           style="fill:#deaa87;fill-opacity:1;stroke:#ff9955;stroke-width:0;stroke-dasharray:none"
           id="rect11725"
           width="18.994202"
           height="4.8305569"
           x="-1264.1967"
           y="58.687881"
           ry="0" />
        <rect
           style="fill:#f4e3d7;fill-opacity:1;stroke:#ff9955;stroke-width:0;stroke-dasharray:none"
           id="rect4770"
           width="18.994202"
           height="1.4405835"
           x="-1264.1967"
           y="58.687881"
           ry="0" />
        <path
           id="path11669"
           style="fill:#803300;fill-opacity:1;stroke:#ff9955;stroke-width:0;stroke-dasharray:none"
           d="m -1259.7546,58.550191 h -2.6237 v 1.61199 c 0,0.72678 0.585,1.31192 1.3118,1.31192 0.7268,0 1.3119,-0.58514 1.3119,-1.31192 z" />
        <path
           id="path11727"
           style="fill:#803300;fill-opacity:1;stroke:#ff9955;stroke-width:0;stroke-dasharray:none"
           d="m -1255.7858,58.550191 h -2.6238 v 1.61199 c 0,0.72678 0.5851,1.31192 1.3119,1.31192 0.7267,0 1.3119,-0.58514 1.3119,-1.31192 z" />
        <path
           id="path11729"
           style="fill:#803300;fill-opacity:1;stroke:#ff9955;stroke-width:0;stroke-dasharray:none"
           d="m -1251.8171,58.550191 h -2.6237 v 1.61199 c 0,0.72678 0.585,1.31192 1.3118,1.31192 0.7268,0 1.3119,-0.58514 1.3119,-1.31192 z" />
        <path
           style="fill:#803300;fill-opacity:1;stroke:#ff9955;stroke-width:0;stroke-dasharray:none"
           d="m -1281.7003,76.691521 4.8957,3.53161 1.663,-2.85892 1.5883,-2.93368 c -0.6897,-2.15096 -2.1841,-2.73034 -3.27,-2.87761 -3.2721,1.59175 -4.558,2.7734 -4.877,5.1386 z"
           id="path11951"
           sodipodi:nodetypes="cccccc" />
        <path
           id="path11893"
           style="fill:#502d16;fill-opacity:1;stroke:#ff9955;stroke-width:0;stroke-dasharray:none"
           d="m -1275.7919,80.799631 1.2374,-2.31366 -1.4215,-0.7602 c -0.6409,-0.34274 -1.4328,-0.10278 -1.7755,0.53809 -0.3428,0.64089 -0.1027,1.43282 0.5381,1.77557 z" />
        <path
           id="path11895"
           style="fill:#502d16;fill-opacity:1;stroke:#ff9955;stroke-width:0;stroke-dasharray:none"
           d="m -1274.3331,78.073481 1.2466,-2.30864 -1.4184,-0.76594 c -0.6394,-0.34533 -1.4323,-0.10857 -1.7776,0.5309 -0.3454,0.6395 -0.1085,1.43239 0.531,1.77773 z" />
        <path
           style="fill:#6c5d53;fill-opacity:1;stroke:#ff9955;stroke-width:0;stroke-dasharray:none"
           d="m -1283.1042,77.594081 0.079,1.98194 5.7608,4.42629 1.5855,-0.96454 0.5153,-0.64743 -7.7559,-5.3512 z"
           id="path12115" />
        <circle
           style="fill:#483e37;fill-opacity:1;stroke:#ff9955;stroke-width:0;stroke-dasharray:none"
           id="path12607"
           cx="-1272.9556"
           cy="72.823105"
           r="0.681077" />
        <circle
           style="fill:#917c6f;fill-opacity:1;stroke:#ff9955;stroke-width:0;stroke-dasharray:none"
           id="circle12609"
           cx="-1272.9556"
           cy="72.823105"
           r="0.50105172" />
        <path
           style="fill:#6c5d53;fill-opacity:1;stroke:#ff9955;stroke-width:0;stroke-dasharray:none"
           d="m -1276.8765,60.709611 -1.6635,2.88116 h 6.9533 l 1.8434,-2.88209 z"
           id="path13197"
           sodipodi:nodetypes="ccccc" />
        <path
           id="path13533"
           style="fill:#483e37;fill-opacity:1;stroke:#ff9955;stroke-width:0;stroke-dasharray:none"
           d="m -1275.8507,60.707811 -0.2615,0.002 -1.6634,2.88096 h 0.262 z" />
        <path
           id="path13545"
           style="fill:#483e37;fill-opacity:1;stroke:#ff9955;stroke-width:0;stroke-dasharray:none"
           d="m -1275.0863,60.707811 -0.2615,0.002 -1.6635,2.88096 h 0.262 z" />
        <path
           id="path13547"
           style="fill:#483e37;fill-opacity:1;stroke:#ff9955;stroke-width:0;stroke-dasharray:none"
           d="m -1276.615,60.707811 -0.2615,0.002 -1.6635,2.88096 h 0.262 z" />
        <path
           id="path13549"
           style="fill:#483e37;fill-opacity:1;stroke:#ff9955;stroke-width:0;stroke-dasharray:none"
           d="m -1274.322,60.707811 -0.2615,0.002 -1.6634,2.88096 h 0.262 z" />
        <path
           id="path13551"
           style="fill:#483e37;fill-opacity:1;stroke:#ff9955;stroke-width:0;stroke-dasharray:none"
           d="m -1273.5576,60.707811 -0.2615,0.002 -1.6635,2.88096 h 0.262 z" />
        <path
           id="path13553"
           style="fill:#483e37;fill-opacity:1;stroke:#ff9955;stroke-width:0;stroke-dasharray:none"
           d="m -1272.7933,60.707811 -0.2615,0.002 -1.6634,2.88096 h 0.262 z" />
        <path
           id="path13555"
           style="fill:#483e37;fill-opacity:1;stroke:#ff9955;stroke-width:0;stroke-dasharray:none"
           d="m -1272.0289,60.707811 -0.2615,0.002 -1.6635,2.88096 h 0.262 z" />
        <path
           id="path13557"
           style="fill:#483e37;fill-opacity:1;stroke:#ff9955;stroke-width:0;stroke-dasharray:none"
           d="m -1271.2646,60.707811 -0.2614,0.002 -1.6635,2.88096 h 0.262 z" />
        <path
           id="path13559"
           style="fill:#483e37;fill-opacity:1;stroke:#ff9955;stroke-width:0;stroke-dasharray:none"
           d="m -1269.7359,60.707811 -0.2614,0.002 -1.6635,2.88096 h 0.262 z" />
        <path
           id="path13561"
           style="fill:#483e37;fill-opacity:1;stroke:#ff9955;stroke-width:0;stroke-dasharray:none"
           d="m -1270.5002,60.707811 -0.2615,0.002 -1.6635,2.88096 h 0.262 z" />
        <path
           style="fill:#917c6f;fill-opacity:1;stroke:#ff9955;stroke-width:0;stroke-dasharray:none"
           d="m -1278.9038,65.542071 -0.3142,1.67018 2.7947,0.66146 0.5622,2.21588 -0.5126,1.09141 2.0174,1.05833 1.9514,-1.07487 v -1.24023 l 0.4707,-1.20196 1.691,-0.0461 h 5.9411 v -3.24984 h -14.6017 z"
           id="path13563"
           sodipodi:nodetypes="cccccccccccccc" />
        <rect
           style="fill:#917c6f;fill-opacity:1;stroke:#ff9955;stroke-width:0;stroke-dasharray:none"
           id="rect4768"
           width="16.133904"
           height="1.3563927"
           x="-1280.3033"
           y="63.525131" />
        <path
           id="rect2883"
           style="fill:#6c5d53;stroke:#ff9955;stroke-width:0;stroke-dasharray:none"
           d="m -1276.5733,57.439271 c -0.2101,0 -0.3793,0.1692 -0.3793,0.37931 v 0.69453 c 0,-0.21011 0.1692,-0.37931 0.3793,-0.37931 h 3.2101 c 0.2102,0 0.3794,0.1692 0.3794,0.37931 v -0.69453 c 0,-0.21011 -0.1692,-0.37931 -0.3794,-0.37931 z" />
        <path
           id="rect2888"
           style="fill:#6c5d53;stroke:#ff9955;stroke-width:0;stroke-dasharray:none"
           d="m -1250.115,57.503411 c -0.2101,0 -0.3793,0.16919 -0.3793,0.3793 v 0.7276 c 0,-0.2101 0.1692,-0.3793 0.3793,-0.3793 h 3.2102 c 0.2101,0 0.3793,0.1692 0.3793,0.3793 v -0.7276 c 0,-0.21011 -0.1692,-0.3793 -0.3793,-0.3793 z" />
        <g
           id="g2912"
           transform="translate(-467.97851,535.94053)"
           style="stroke-width:0;stroke-dasharray:none">
          <rect
             style="fill:#502d16;stroke:#ff9955;stroke-width:0;stroke-dasharray:none"
             id="rect676"
             width="0.59282237"
             height="3.8220267"
             x="-456.61795"
             y="788.72223"
             ry="0.31425557"
             transform="rotate(90)" />
          <rect
             style="fill:#502d16;stroke:#ff9955;stroke-width:0;stroke-dasharray:none"
             id="rect678"
             width="0.59282237"
             height="3.8220267"
             x="-469.80972"
             y="788.72223"
             ry="0.31425557"
             transform="rotate(90)" />
          <rect
             style="fill:#ff7f2a;stroke:#ff9955;stroke-width:0;stroke-dasharray:none"
             id="rect680"
             width="12.881869"
             height="5.8577037"
             x="-469.40366"
             y="787.70435"
             ry="1.3256909"
             transform="rotate(90)" />
          <path
             id="rect2898"
             style="fill:#ff6600;stroke:#ff9955;stroke-width:0;stroke-dasharray:none"
             d="m -790.80723,-469.40391 c 0.73443,0 1.3255,0.59159 1.3255,1.32602 v 10.23038 c 0,0.73444 -0.59107,1.3255 -1.3255,1.3255 h 1.87068 c 0.73444,0 1.32602,-0.59106 1.32602,-1.3255 v -10.23038 c 0,-0.73443 -0.59158,-1.32602 -1.32602,-1.32602 z" />
          <rect
             style="fill:#502d16;stroke:#ff9955;stroke-width:0;stroke-dasharray:none"
             id="rect682"
             width="1.1599908"
             height="6.6266379"
             x="-468.39178"
             y="787.2818"
             ry="0.54485697"
             transform="rotate(90)" />
          <rect
             style="fill:#502d16;stroke:#ff9955;stroke-width:0;stroke-dasharray:none"
             id="rect684"
             width="1.1599908"
             height="6.6266379"
             x="-459.03348"
             y="787.2818"
             ry="0.54485697"
             transform="rotate(90)" />
          <rect
             style="fill:#ff9955;stroke:#ff9955;stroke-width:0;stroke-dasharray:none"
             id="rect2903"
             width="7.2292614"
             height="2.0691586"
             x="-466.85495"
             y="791.11871"
             ry="0.46828327"
             transform="rotate(90)" />
        </g>
        <g
           id="g2928"
           transform="translate(-461.33686,535.89376)"
           style="stroke-width:0;stroke-dasharray:none">
          <rect
             style="fill:#502d16;stroke:#ff9955;stroke-width:0;stroke-dasharray:none"
             id="rect2914"
             width="0.59282237"
             height="3.8220267"
             x="-456.61795"
             y="788.72223"
             ry="0.31425557"
             transform="rotate(90)" />
          <rect
             style="fill:#502d16;stroke:#ff9955;stroke-width:0;stroke-dasharray:none"
             id="rect2916"
             width="0.59282237"
             height="3.8220267"
             x="-469.80972"
             y="788.72223"
             ry="0.31425557"
             transform="rotate(90)" />
          <rect
             style="fill:#ff7f2a;stroke:#ff9955;stroke-width:0;stroke-dasharray:none"
             id="rect2918"
             width="12.881869"
             height="5.8577037"
             x="-469.40366"
             y="787.70435"
             ry="1.3256909"
             transform="rotate(90)" />
          <path
             id="path2920"
             style="fill:#ff6600;stroke:#ff9955;stroke-width:0;stroke-dasharray:none"
             d="m -790.80723,-469.40391 c 0.73443,0 1.3255,0.59159 1.3255,1.32602 v 10.23038 c 0,0.73444 -0.59107,1.3255 -1.3255,1.3255 h 1.87068 c 0.73444,0 1.32602,-0.59106 1.32602,-1.3255 v -10.23038 c 0,-0.73443 -0.59158,-1.32602 -1.32602,-1.32602 z" />
          <rect
             style="fill:#502d16;stroke:#ff9955;stroke-width:0;stroke-dasharray:none"
             id="rect2922"
             width="1.1599908"
             height="6.6266379"
             x="-468.39178"
             y="787.2818"
             ry="0.54485697"
             transform="rotate(90)" />
          <rect
             style="fill:#502d16;stroke:#ff9955;stroke-width:0;stroke-dasharray:none"
             id="rect2924"
             width="1.1599908"
             height="6.6266379"
             x="-459.03348"
             y="787.2818"
             ry="0.54485697"
             transform="rotate(90)" />
          <rect
             style="fill:#ff9955;stroke:#ff9955;stroke-width:0;stroke-dasharray:none"
             id="rect2926"
             width="7.2292614"
             height="2.0691586"
             x="-466.85495"
             y="791.11871"
             ry="0.46828327"
             transform="rotate(90)" />
        </g>
        <rect
           style="fill:#917c6f;fill-opacity:1;stroke:#ff9955;stroke-width:0;stroke-dasharray:none"
           id="rect14841"
           width="4.8568687"
           height="2.5724099"
           x="-1269.2202"
           y="59.401459"
           ry="0.51961488" />
        <rect
           style="fill:#e3dbdb;fill-opacity:1;stroke:#ff9955;stroke-width:0;stroke-dasharray:none"
           id="rect9345-8"
           width="4.6806421"
           height="2.3155074"
           x="-1269.1321"
           y="59.477882"
           ry="0.4677217" />
        <circle
           style="fill:#483e37;fill-opacity:1;stroke:#ff9955;stroke-width:0;stroke-dasharray:none"
           id="path12607-8"
           cx="-1278.4049"
           cy="66.162239"
           r="0.40336749" />
        <circle
           style="fill:#917c6f;fill-opacity:1;stroke:#ff9955;stroke-width:0;stroke-dasharray:none"
           id="circle12609-6"
           cx="-1278.4049"
           cy="66.162239"
           r="0.29674762" />
        <circle
           style="fill:#483e37;fill-opacity:1;stroke:#ff9955;stroke-width:0;stroke-dasharray:none"
           id="path12607-8-4"
           cx="-1264.942"
           cy="66.342812"
           r="0.40336749" />
        <circle
           style="fill:#917c6f;fill-opacity:1;stroke:#ff9955;stroke-width:0;stroke-dasharray:none"
           id="circle12609-6-2"
           cx="-1264.942"
           cy="66.342812"
           r="0.29674762" />
        <path
           id="rect14843"
           style="fill:#c8beb7;fill-opacity:1;stroke:#ff9955;stroke-width:0;stroke-dasharray:none"
           d="m -1269.1324,60.320866 v 1.000455 c 0,0.259118 0.2091,0.468189 0.4682,0.468189 h 3.745 c 0.2591,0 0.4677,-0.209071 0.4677,-0.468189 v -1.000455 c 0,0.259117 -0.2086,0.468188 -0.4677,0.468188 h -3.745 c -0.2591,0 -0.4682,-0.209071 -0.4682,-0.468188 z" />
        <path
           style="fill:#a05a2c;fill-opacity:1;stroke:none;stroke-width:0;stroke-dasharray:none"
           d="m -1248.7749,75.670713 1.9976,-0.01754 1.5845,-6.28851 -3.5801,-0.0064 v 6.291771 z"
           id="path10609-0-2"
           sodipodi:nodetypes="cccccc" />
        <path
           style="fill:#a05a2c;fill-opacity:1;stroke:none;stroke-width:0;stroke-dasharray:none"
           d="m -1264.1322,75.675984 h 2.0445 l 0.1972,-7.714485 -2.2704,-0.0064 v 7.746979 z"
           id="path10638-5"
           sodipodi:nodetypes="cccccc" />
        <g
           id="g14626"
           style="stroke-width:0;stroke-dasharray:none">
          <g
             id="g14619"
             style="stroke-width:0;stroke-dasharray:none">
            <path
               style="fill:#6c5d53;fill-opacity:1;stroke:none;stroke-width:0;stroke-dasharray:none"
               d="m -1271.8001,67.099697 h 2.8538 v 0.949553 l -0.687,0.383699 h -1.6216 l -0.5073,-0.490783 z"
               id="path6212-7" />
            <path
               style="fill:#483e37;fill-opacity:1;stroke:none;stroke-width:0;stroke-dasharray:none"
               d="m -1271.8001,67.836349 h 2.8538 v 0.192292 l -0.687,0.404308 h -1.6216 l -0.5073,-0.434705 z"
               id="path6268-4"
               sodipodi:nodetypes="ccccccc" />
            <circle
               style="fill:#483e37;fill-opacity:1;stroke:#ff9955;stroke-width:0;stroke-dasharray:none"
               id="circle9189-5"
               cx="-1271.4752"
               cy="67.766403"
               r="0.70291364" />
            <circle
               style="fill:#917c6f;fill-opacity:1;stroke:#ff9955;stroke-width:0;stroke-dasharray:none"
               id="circle9191-0"
               cx="-1271.4752"
               cy="67.766403"
               r="0.51711637" />
          </g>
        </g>
      </g>
    </g>
  </g>
</svg>
