<?xml version="1.0" encoding="UTF-8" standalone="no"?>
<!-- Created with Inkscape (http://www.inkscape.org/) -->

<svg
   width="256"
   height="256"
   viewBox="0 0 67.733332 67.733333"
   version="1.1"
   id="svg11005"
   inkscape:version="1.3 (0e150ed6c4, 2023-07-21)"
   sodipodi:docname="default_body.svg"
   xmlns:inkscape="http://www.inkscape.org/namespaces/inkscape"
   xmlns:sodipodi="http://sodipodi.sourceforge.net/DTD/sodipodi-0.dtd"
   xmlns:xlink="http://www.w3.org/1999/xlink"
   xmlns="http://www.w3.org/2000/svg"
   xmlns:svg="http://www.w3.org/2000/svg">
  <sodipodi:namedview
     id="namedview11007"
     pagecolor="#ffffff"
     bordercolor="#000000"
     borderopacity="0.25"
     inkscape:showpageshadow="2"
     inkscape:pageopacity="0.0"
     inkscape:pagecheckerboard="0"
     inkscape:deskcolor="#d1d1d1"
     inkscape:document-units="px"
     showgrid="false"
     inkscape:zoom="1.414214"
     inkscape:cx="-50.91169"
     inkscape:cy="154.5028"
     inkscape:window-width="1920"
     inkscape:window-height="1017"
     inkscape:window-x="-8"
     inkscape:window-y="-8"
     inkscape:window-maximized="1"
     inkscape:current-layer="g10994" />
  <defs
     id="defs11002">
    <radialGradient
       inkscape:collect="always"
       xlink:href="#linearGradient42734"
       id="radialGradient42736"
       cx="134.90938"
       cy="256.32309"
       fx="134.90938"
       fy="256.32309"
       r="0.171565"
       gradientTransform="matrix(1,0,0,3.927083,0,-750.27897)"
       gradientUnits="userSpaceOnUse" />
    <linearGradient
       inkscape:collect="always"
       id="linearGradient42734">
      <stop
         style="stop-color:#972228;stop-opacity:1"
         offset="0"
         id="stop42730" />
      <stop
         style="stop-color:#fef9f9;stop-opacity:0.2028302"
         offset="1"
         id="stop42732" />
    </linearGradient>
    <radialGradient
       inkscape:collect="always"
       xlink:href="#linearGradient39501"
       id="radialGradient39503"
       cx="133.23056"
       cy="264.12244"
       fx="133.23056"
       fy="264.12244"
       r="1.403165"
       gradientTransform="matrix(1.3535536,0,0,2.4182157,-46.839552,-374.11545)"
       gradientUnits="userSpaceOnUse" />
    <linearGradient
       inkscape:collect="always"
       id="linearGradient39501">
      <stop
         style="stop-color:#ffe1ce;stop-opacity:1"
         offset="0"
         id="stop39497" />
      <stop
         style="stop-color:#ffe1ce;stop-opacity:0"
         offset="1"
         id="stop39499" />
    </linearGradient>
    <radialGradient
       inkscape:collect="always"
       xlink:href="#linearGradient39501"
       id="radialGradient39503-1"
       cx="133.23056"
       cy="264.12244"
       fx="133.23056"
       fy="264.12244"
       r="1.403165"
       gradientTransform="matrix(-1.3535536,0,0,2.4182157,316.59511,-374.28706)"
       gradientUnits="userSpaceOnUse" />
  </defs>
  <g
     inkscape:label="Слой 1"
     inkscape:groupmode="layer"
     id="layer1">
    <g
       id="g10994"
       transform="matrix(2.1983458,0,0,2.1983458,-262.91534,-549.30898)"
       inkscape:export-filename="g10995.png"
       inkscape:export-xdpi="96"
       inkscape:export-ydpi="96">
      <path
         style="fill:#fffbe9;fill-opacity:1;stroke:#c5b7bf;stroke-width:0.626268;stroke-dasharray:none;stroke-opacity:1"
         d="m 132.95312,252.13138 0.0165,-0.95911 c 1.71398,-1.63849 3.58082,-0.89723 4.06796,-0.0992 l 0.11576,1.2237 0.9095,0.82682 1.60404,0.79375 c 1.25252,0.70449 1.20162,1.9233 1.28986,3.22461 l 0.41341,0.69453 c 0.28013,1.16167 -0.18206,2.30369 -0.87644,2.9931 l -0.87643,0.52916 -0.29765,0.0992 c -0.48667,1.21777 0.16429,1.72046 0.95916,2.64584 0.83621,0.9956 1.15331,1.93084 1.37253,3.15846 0.0162,2.33499 -0.72631,4.74654 -1.88512,6.41614 l -0.66146,2.71198 c -0.59536,1.25159 -0.82274,3.21282 -2.11666,3.95222 -0.87058,0.18391 -1.42158,-0.39415 -1.91823,-0.89294 l -0.29928,0.3379 -0.21335,0.24087 c -0.89523,0.44444 -1.5246,0.54133 -2.14974,-0.16536 l -1.7198,-3.77031 -0.56223,-2.57969 c -1.39208,-1.90277 -1.71068,-3.73602 -1.76941,-6.10195 0.0141,-1.39995 0.41382,-2.24978 1.37253,-3.1254 0.83306,-1.07714 1.21955,-1.53113 0.82685,-2.76158 -0.93363,-0.34632 -1.48248,-1.00405 -1.93476,-1.85208 -0.12267,-0.5706 -0.10718,-1.02768 0.0296,-1.48108 0.0726,-0.24051 0.17928,-0.47998 0.31762,-0.73481 l 0.16537,-0.3638 c -0.0887,-1.879 0.48158,-2.87321 2.06702,-3.60495 l 0.94258,-0.49609 z"
         id="path481"
         sodipodi:nodetypes="ccccccccccccccccccccccccccsccccc" />
      <g
         id="g10965">
        <g
           id="g10909">
          <path
             style="fill:#f7b7af;fill-opacity:1;stroke:none;stroke-width:0.0313637"
             d="m 134.77708,266.18587 c -0.10701,-0.045 -0.18358,-0.35507 -0.13356,-0.54084 0.049,-0.18208 0.12807,-0.26474 0.24985,-0.26127 0.17613,0.005 0.22154,0.0765 0.22148,0.34895 -6e-5,0.30483 -0.066,0.4549 -0.20381,0.46385 -0.0517,0.003 -0.11203,-0.003 -0.13396,-0.0106 z"
             id="path2214-6-6" />
          <path
             id="path3312"
             style="fill:#ffe1ce;fill-opacity:1;stroke:none;stroke-width:0.264583"
             d="m 136.85314,251.73347 -2.00091,0.39686 5.2e-4,0.0103 -1.77509,-0.49714 0.2894,1.57923 c 0,0 -0.70278,0.23978 -0.76068,0.26458 -0.0579,0.0248 -1.13276,0.50463 -1.20716,0.51263 -0.0744,0.008 -0.5209,0.22324 -0.5209,0.22324 l -0.57877,0.57051 -0.3142,0.76068 -0.14056,0.93431 c 0,0 -0.91777,1.24851 -0.94257,1.29811 -0.0248,0.0496 -0.24805,0.62833 -0.24805,0.66973 0,0.0413 0.0414,0.8516 0.0579,0.8847 0.0165,0.0331 0.20671,0.57052 0.23151,0.64492 0.0248,0.0744 0.62011,0.86816 0.62011,0.86816 0,0 0.89298,0.63666 0.94258,0.63666 0.0496,0 0.72762,0.0744 0.80202,0.0744 0.0744,0 1.01699,-0.0992 1.01699,-0.0992 l 1.43041,-0.62838 1.1932,-0.90486 1.11053,0.8878 1.4304,0.62787 c 0,0 0.94258,0.0992 1.017,0.0992 0.0744,0 0.75241,-0.0744 0.80202,-0.0744 1.5652,-0.80588 2.08955,-2.0414 1.97779,-3.56647 0,-0.0414 -0.42335,-0.82396 -0.44816,-0.87357 -0.0248,-0.0496 -0.59532,-0.62839 -0.59532,-0.62839 l -0.23978,-1.00872 -0.28938,-0.96739 -0.69454,-0.55397 c 0,0 -0.52916,0.11576 -0.60357,0.10749 -0.0744,-0.008 -1.1493,-0.48783 -1.20716,-0.51263 -0.0579,-0.0248 -0.76068,-0.26458 -0.76068,-0.26458 z m -1.45528,1.95129 c 0.081,0.17002 0.1814,0.32604 0.28939,0.47956 l 0.77721,0.17363 c -0.43348,0.12809 -0.85724,0.2834 -1.28157,0.43822 -0.0926,0.0639 -0.19528,0.10861 -0.29404,0.16076 -0.0896,-0.0401 -0.17221,-0.0938 -0.25684,-0.14316 -0.42089,-0.16474 -0.85152,-0.30017 -1.28158,-0.43822 l 0.77722,-0.17363 c 0.1179,-0.14752 0.20011,-0.31396 0.28938,-0.47956 0.4687,-0.32304 0.54043,-0.30693 0.98083,-0.0176 z m 1.14161,1.64591 c 0.64579,0.0653 1.09833,0.40382 1.62884,0.74414 0.43495,0.30421 0.75477,0.66064 1.02526,1.09967 0.16615,0.35848 0.47824,0.59512 0.76067,0.8599 0.21187,0.277 0.18068,0.48002 0.15707,0.81029 l -0.28939,0.38033 -0.48782,0.26459 c -0.58766,1.01737 -1.56017,1.01241 -2.56315,0.50383 -0.51206,-0.40048 -0.93531,-0.88749 -1.37253,-1.36374 -0.17532,-0.20815 -0.29841,-0.43423 -0.38862,-0.68678 -0.0216,-0.081 -0.16663,-0.0861 -0.20464,0.0176 -0.0682,0.26008 -0.23891,0.47059 -0.38862,0.68627 -0.62684,0.75825 -1.43843,1.48365 -2.28203,1.72806 -0.5772,-0.004 -0.92928,-0.08 -1.34773,-0.45474 l -0.30592,-0.41341 -0.48783,-0.26458 c -0.27781,-0.27103 -0.31702,-0.47373 -0.34315,-0.83923 0.14484,-0.36249 0.46232,-0.58716 0.74001,-0.84749 0.30183,-0.60911 0.74319,-1.0224 1.25677,-1.46348 0.50228,-0.42458 1.01137,-0.59486 1.62884,-0.74414 0.60792,0.0674 0.76161,0.35483 1.10794,0.81856 l 0.23978,0.67799 c 0.20487,1.08403 0.3928,0.83569 0.56844,-0.0171 l 0.23978,-0.678 c 0.30427,-0.54685 0.54295,-0.66789 1.10803,-0.81854 z"
             sodipodi:nodetypes="cccccscccccsssscsscccccsccscccccsccccccccccccccccccccccccccccccccccccc" />
          <path
             style="fill:#f3afac;fill-opacity:1;stroke:none;stroke-width:0.264583"
             d="m 129.25546,257.11012 0.61973,-0.68989 0.12862,-0.81851 c 0.16798,-0.6451 0.41789,-0.96474 0.92375,-1.3447 l 1.20439,0.0351 1.12253,0.26894 1.08745,0.30987 -0.24555,-0.2631 -0.71328,-0.23386 -0.86528,-0.19878 -0.26894,-0.31571 1.40316,-0.21048 0.22217,0.0351 -0.31571,-0.5028 -0.14032,-0.51449 -0.12862,-0.65481 c 0.5582,0.32091 1.12862,0.33974 1.75395,0.38582 0.74236,0.0818 1.18727,-0.12352 1.80073,-0.49113 l -0.29232,1.05237 -0.37418,0.63143 -0.1637,0.12862 0.79512,-0.0468 0.78344,0.0468 0.17539,0.18709 -0.17539,0.18709 c -0.55689,0.24383 -1.14609,0.32826 -1.71888,0.54957 l -0.22217,0.21047 -0.0468,0.0702 c 0,0 0.40926,-0.0818 0.49111,-0.14031 0.0819,-0.0585 0.51449,-0.24556 0.57296,-0.24556 0.0585,0 0.63142,-0.10524 0.63142,-0.10524 0.42323,-0.1151 0.85419,-0.16702 1.28623,-0.2339 1.01029,0.0376 1.43419,1.34162 1.55518,2.01125 l 0.1637,0.42095 0.6508,0.64971 c 0.002,-0.0405 -0.14324,-0.27967 -0.14222,-0.31998 0.0317,-1.25457 -0.22799,-2.41895 -1.10494,-2.87882 -0.12862,-0.0819 -0.72496,-0.36248 -0.72496,-0.36248 -0.81365,-0.4075 -1.31049,-0.72345 -1.81242,-1.44994 l -0.23386,-0.79513 c -0.15853,-1.78416 -3.05571,-1.1083 -3.70665,-0.51448 -0.005,0.0208 -0.1565,0.24342 -0.17603,0.47539 -0.0245,0.29052 0.0825,0.60038 0.0825,0.60038 l -0.21048,0.46772 c -0.82054,0.72974 -1.63214,1.05554 -2.61924,1.60194 -0.99484,0.75624 -1.05882,1.92926 -1.05238,3.00512 z"
             id="path483"
             sodipodi:nodetypes="ccccccccccccccccccccccccccccsscccccscccccsccccc" />
          <path
             style="fill:#f1acab;fill-opacity:1;stroke:none;stroke-width:0.264583"
             d="m 131.59755,254.94331 -0.46302,0.38034 c -0.54774,0.37183 -0.96341,0.85112 -1.38906,1.34772 0,0 -0.43822,0.60358 -0.46302,0.65319 -0.27743,0.40665 -0.29536,0.82671 -0.40308,1.29604 -0.11213,1.15172 0.66694,1.91352 1.54413,2.37505 1.55152,0.2774 2.74657,-0.19161 3.82819,-1.19891 0.24317,-0.28362 0.5955,-0.51333 0.69682,-0.86161 0.0228,0.32994 -0.0154,0.61531 -0.12891,0.95614 -0.12162,0.33211 -0.52111,0.4147 -0.86558,0.69922 -0.0413,0.0413 -1.01699,0.59531 -1.05833,0.62011 -0.0413,0.0248 -1.06661,0.339 -1.19063,0.339 -1.24075,0.36469 -2.47347,-0.63836 -3.0179,-2.01331 -0.14997,-0.92507 -0.0258,-1.56577 0.37209,-2.35231 0.29299,-0.49873 0.71527,-0.87362 1.12448,-1.27331 z"
             id="path5279"
             sodipodi:nodetypes="ccccccccccsccccc" />
          <path
             style="fill:#ffe1ce;fill-opacity:1;stroke:none;stroke-width:0.264583"
             d="m 132.34185,266.16872 c -0.0351,-0.0468 -0.61973,-1.25116 -0.61973,-1.25116 0,0 -0.19878,-0.56126 -0.19878,-0.65482 0.0344,-0.53456 0.23132,-0.99404 0.44433,-1.47332 0.3242,-0.54091 0.76023,-0.77418 1.30962,-1.04068 0.44353,-0.005 1.1994,-0.22848 1.39152,0.21039 0.28446,1.25581 0.22739,2.51026 0.0585,3.76516 0.15391,0.26205 0.26197,0.16678 0.39757,-0.10525 -0.0559,-1.26335 -0.36543,-2.69448 0.0819,-3.81192 0.48304,-0.19239 0.82771,-0.14754 1.29793,-0.0117 0.55999,0.21076 0.8736,0.56933 1.25115,1.00561 0.4652,0.79452 0.60072,1.67369 0.18708,2.53739 l -0.31571,0.66649 c 0.56296,-0.64635 0.92629,-2.09838 1.8475,-1.34469 0.14087,0.18223 0.26402,0.37239 0.37422,0.57295 l 0.51449,-0.19878 -0.19878,-0.18709 0.0298,-0.76029 -0.67844,-0.61253 -0.31028,-0.30461 -0.32823,-0.63059 0.15543,-0.62751 0.23102,-0.40926 -0.79478,0.0591 c 0,0 -1.29793,-0.17539 -1.3447,-0.17539 -0.0468,0 -1.13423,-0.30402 -1.13423,-0.30402 l -0.79513,-0.26894 -1.08745,0.0468 -0.83021,0.35079 -1.19268,0.40926 h -0.8419 -0.42095 l 0.21047,0.53788 0.0585,0.49111 -0.12863,0.5028 -0.23386,0.3274 c -0.29862,0.0218 -0.48687,0.33062 -0.67819,0.63143 l -0.49111,0.59635 -0.30402,0.37417 -0.0818,0.25725 0.81851,-0.10525 0.25725,0.0116 -0.12862,-0.45603 c 0.41317,-0.51444 0.56532,-0.4179 1.12253,-0.12859 z"
             id="path8959"
             sodipodi:nodetypes="ccccccccccccccccccccccccscccccccccccccccccccc" />
          <path
             style="fill:#f1acab;fill-opacity:1;stroke:none;stroke-width:0.264583"
             d="m 138.31651,254.92751 0.46302,0.38034 0.79375,0.65319 0.59531,0.69453 c 0,0 0.43822,0.60358 0.46302,0.65319 1.65764,4.51449 -4.5412,4.57257 -5.68177,1.6303 l -0.0479,0.54141 c -0.011,0.16475 0.12236,0.30891 0.18036,0.41693 0.15478,0.28834 0.5627,0.41705 0.87773,0.67726 0.0413,0.0413 1.01699,0.59531 1.05833,0.62011 0.0413,0.0248 1.06661,0.339 1.19063,0.339 0.12402,0 1.14101,-0.12402 1.14101,-0.12402 1.53542,-0.55967 2.17005,-2.22064 1.9305,-3.53295 -0.3539,-0.846 -0.90489,-1.35168 -1.55018,-1.98196 z"
             id="path5279-7"
             sodipodi:nodetypes="cccccccscsscccc" />
          <path
             style="fill:#e0878b;fill-opacity:1;stroke:none;stroke-width:0.264583"
             d="m 130.61838,261.54269 c 0,0 0.95395,-0.0848 1.01182,-0.0848 0.0579,0 0.95085,-0.1819 0.95085,-0.1819 0,0 0.75241,-0.26459 0.80202,-0.30593 0.0496,-0.0413 0.57051,-0.3886 0.60358,-0.40514 0.0331,-0.0165 0.62012,-0.38034 0.62012,-0.38034 l 0.22324,-0.31419 0.0331,-0.37207 0.1819,-0.0248 0.0165,0.44648 0.41341,0.34727 c 0,0 0.59531,0.42168 0.62839,0.43821 0.0331,0.0165 0.58704,0.30593 0.63665,0.339 0.0496,0.0331 0.7028,0.30593 0.73587,0.30593 0.0331,0 0.63665,0.0331 0.72761,0.0331 0.091,0 0.74414,-0.0331 0.84335,-0.0331 0.0992,0 0.40515,-0.0414 0.40515,-0.0414 l -0.14883,0.1571 -0.61185,0.0579 c -1.06708,0.32342 -2.16917,-0.40636 -3.10058,-0.52915 -0.33177,0.13858 -0.39682,0.31738 -0.51263,0.57883 -0.0433,0.0236 -0.0769,0.0723 -0.15711,0 l -0.12402,-0.28112 c -0.27258,-0.39433 -0.80058,-0.2928 -1.10795,-0.17363 -0.0496,0.0331 -0.31419,0.17363 -0.39687,0.2067 -0.0827,0.0331 -0.69453,0.20671 -0.69453,0.20671 l -0.52917,0.13229 -0.48886,0.0248 -0.88987,-0.0279 z"
             id="path7305"
             sodipodi:nodetypes="cscssccccccsssssccccccccsccccc" />
          <path
             style="fill:#e0878b;fill-opacity:1;stroke:none;stroke-width:0.264583"
             d="m 130.41023,263.59309 c 0,0 0.15786,0.26894 0.19878,0.30986 0.0409,0.0409 0.27479,0.25726 0.27479,0.25726 l 0.27479,0.27477 0.0643,0.14618 0.0585,-0.1111 -0.0409,-0.53787 c 0,0 0.0234,-0.46188 0.0292,-0.49696 0.0546,-0.35712 0.17623,-0.68825 0.30402,-1.02314 0.13694,-0.30731 0.33082,-0.54213 0.56127,-0.77759 l -0.45018,0.0117 -0.71913,-0.0175 -0.35079,-0.0819 0.0935,0.22802 c 0.19787,0.70586 0.0709,1.25423 -0.29814,1.81827 z"
             id="path8955"
             sodipodi:nodetypes="cscccccccccccccc" />
          <path
             style="fill:#e0878b;fill-opacity:1;stroke:none;stroke-width:0.264583"
             d="m 139.54844,263.45684 c 0,0 -0.15786,0.26894 -0.19878,0.30986 -0.0409,0.0409 -0.27479,0.25726 -0.27479,0.25726 -0.15739,0.11898 -0.25119,0.25556 -0.33909,0.42095 l -0.0585,-0.1111 c 0.10977,-1.07261 -0.15345,-2.10834 -0.85359,-2.83556 l 0.45018,0.0117 0.71913,-0.0175 0.35079,-0.0819 -0.0935,0.22802 c -0.13467,0.63741 -0.12361,0.9303 0.0234,1.44993 0.006,0.0351 0.27479,0.36834 0.27479,0.36834 z"
             id="path8955-1"
             sodipodi:nodetypes="csccccccccccc" />
          <path
             style="fill:#e0878b;fill-opacity:1;stroke:none;stroke-width:0.264583"
             d="m 130.42848,263.57969 -0.46303,0.87644 c -0.25623,0.40929 -0.30636,0.55824 0.13225,0.76068 l -0.19844,0.21497 -0.28112,0.0579 -0.42167,0.34726 c 0,0 -0.26459,0.3142 -0.32247,0.42995 -0.0579,0.11576 -0.34726,1.20716 -0.34726,1.20716 0,0 0.008,-0.35552 0.008,-0.4382 0,-0.0827 0.0165,-0.62839 0.0248,-0.66146 0.008,-0.0331 0.16537,-0.57052 0.18191,-0.62013 0.0165,-0.0496 0.28112,-0.53742 0.31419,-0.57877 0.0331,-0.0413 0.48782,-0.5705 0.48782,-0.5705 z"
             id="path8957"
             sodipodi:nodetypes="ccccccscscsscc" />
          <path
             style="fill:#e0878b;fill-opacity:1;stroke:none;stroke-width:0.264583"
             d="m 139.38995,263.31217 0.39688,0.59532 0.23151,0.33899 -0.0413,0.27286 -0.32246,0.14883 0.19844,0.21497 0.28112,0.0579 0.42167,0.34726 c 0,0 0.26459,0.3142 0.32247,0.42995 0.0579,0.11576 0.34726,1.20716 0.34726,1.20716 0,0 -0.008,-0.35552 -0.008,-0.4382 0,-0.0827 -0.0165,-0.62839 -0.0248,-0.66146 -0.008,-0.0331 -0.16537,-0.57052 -0.18191,-0.62013 -0.0165,-0.0496 -0.28112,-0.53742 -0.31419,-0.57877 -0.0331,-0.0413 -0.48782,-0.5705 -0.48782,-0.5705 z"
             id="path8957-4" />
          <path
             style="fill:#ffe1ce;fill-opacity:1;stroke:none;stroke-width:0.259092"
             d="m 132.18973,266.35273 0.55501,0.97565 0.43607,0.52091 0.39643,0.44648 0.64222,0.42167 0.29335,0.0414 0.77701,0.008 0.55499,-0.32245 0.5233,-0.4961 0.4995,-0.50437 0.54707,-0.73586 0.30921,-0.70281 -0.64221,0.84336 -0.30128,0.32247 -0.8008,0.48781 -0.56293,0.0992 c 0,0 -0.60258,0.0331 -0.65807,0.0331 -0.0555,0 -0.50743,-0.0496 -0.50743,-0.0496 l -0.70565,-0.19016 -0.53121,-0.2894 -0.48365,-0.53742 -0.40436,-0.6036 z"
             id="path9413" />
          <path
             style="fill:#e0878b;fill-opacity:1;stroke:none;stroke-width:0.264583"
             d="m 133.31099,267.9121 0.42995,0.46302 0.57051,0.26459 c 0,0 0.2067,0.1075 0.27285,0.1075 0.0661,0 0.71107,-0.0249 0.71107,-0.0249 l 0.47955,-0.24805 0.73588,-0.58703 -0.32247,0.44648 -0.33899,0.71107 -0.37207,0.95083 -0.17364,0.76896 -0.0496,4.4731 -0.13229,0.52091 -0.0496,1.83555 0.19177,1.01778 0.0795,0.55318 0.13857,0.59375 -0.38144,-0.45325 -0.53282,0.44628 0.11576,-0.7276 0.0992,-0.63664 -0.0248,-2.46394 -0.15709,-0.62838 -0.1819,-4.72117 -0.43822,-1.37253 -0.38034,-0.83508 z"
             id="path10996"
             sodipodi:nodetypes="cccsccccccccccccccccccccccc" />
          <path
             style="fill:#ffe1ce;fill-opacity:1;stroke:none;stroke-width:0.264583"
             d="m 131.79717,266.53939 c -0.78321,-0.58126 -1.61323,-0.96953 -2.39779,-0.64492 -0.77827,1.38877 -0.51657,3.14135 -0.20667,4.49791 0.37952,0.89731 0.94332,1.67063 1.49655,2.46394 0.45219,0.5267 0.47618,1.39993 0.59532,1.97609 0.35471,0.78412 0.51724,1.00417 1.30638,1.1493 0.89716,-0.0275 1.24494,-0.61706 1.24023,-1.27331 0.35345,-1.06485 0.19971,-2.15645 0.15708,-3.25768 -0.14596,-1.31333 -0.53086,-2.50903 -1.01699,-3.72071 l -0.7028,-0.77721 -0.1571,-0.1819 0.90124,0.71932 0.79375,1.00047 c 0.92271,1.79717 0.72186,3.32774 0.74415,5.27513 l 0.0579,1.33117 0.11575,0.66146 c 0.14559,1.02272 0.17463,2.05396 0.0163,3.05925 0.0178,0.42876 0.045,0.67125 -0.14843,0.92594 -1.49045,0.76547 -1.8789,0.49258 -2.17499,0.058 l -0.91777,-2.0588 -0.7028,-1.70326 -0.26458,-1.2981 -0.27286,-1.28157 c -1.01966,-1.34652 -1.58534,-3.08912 -1.70325,-4.63022 l -0.0745,-1.55443 c 0.0259,-0.82822 0.48604,-1.82676 1.11621,-2.00091 l 0.67799,0.1075 1.00046,0.64492 z"
             id="path17770"
             sodipodi:nodetypes="ccccccccccccccccccccccccccccc" />
          <path
             style="fill:#fdcbb8;fill-opacity:1;stroke:none;stroke-width:0.264583"
             d="m 129.60042,258.5277 c -0.2859,0.81441 0.51959,1.22382 1.0749,0.97568 -0.56942,-0.0691 -0.96604,-0.5353 -1.07492,-0.97561 z"
             id="path19046"
             sodipodi:nodetypes="cccc" />
          <path
             style="fill:#fdcbb8;fill-opacity:1;stroke:none;stroke-width:0.264583"
             d="m 140.23746,258.51804 c 0.22349,0.60479 -0.18618,1.05322 -0.76069,1.11624 -0.0331,-0.008 -0.3142,-0.14056 -0.3142,-0.14056 0.52367,-0.16204 0.92443,-0.50254 1.07489,-0.97568 z"
             id="path19046-2"
             sodipodi:nodetypes="cccc" />
          <path
             style="fill:#da7f83;fill-opacity:1;stroke:none;stroke-width:0.264583"
             d="m 131.00182,253.73541 0.90124,-0.19843 c 0,0 0.97565,-0.29766 1.03353,-0.30593 0.0579,-0.008 0.33073,-0.25631 0.33073,-0.25631 l -0.0992,-0.8351 -0.14883,0.0248 -0.94258,0.96738 -0.81028,0.40514 z"
             id="path21346" />
          <path
             style="fill:#da7f83;fill-opacity:1;stroke:none;stroke-width:0.264583"
             d="m 139.11296,253.77263 -0.90124,-0.19843 c 0,0 -0.97565,-0.29766 -1.03353,-0.30593 -0.0579,-0.008 -0.33073,-0.25631 -0.33073,-0.25631 l 0.0992,-0.8351 0.14883,0.0248 0.94258,0.96738 0.81028,0.40514 z"
             id="path21346-1" />
          <path
             style="fill:#972228;fill-opacity:1;stroke:none;stroke-width:0.264583"
             d="m 133.54873,253.31943 -0.15709,-0.3266 c 0,0 -0.0661,-0.4134 -0.0661,-0.43407 0,-0.0207 -0.14056,-0.72347 -0.14056,-0.74001 0,-0.0165 -0.008,-0.57464 -0.008,-0.57464 l -0.0124,-0.16123 -0.0703,0.0372 -0.0413,0.68627 -0.0331,0.43408 c 0,0 0.0992,0.49609 0.11162,0.51676 0.0124,0.0207 0.0909,0.29766 0.13229,0.37207 0.0413,0.0744 0.14883,0.25632 0.17363,0.27286 0.0248,0.0165 0.34727,0.17363 0.34727,0.17363 z"
             id="path22260"
             sodipodi:nodetypes="ccsscccccscscc" />
          <path
             style="fill:#972228;fill-opacity:1;stroke:none;stroke-width:0.264583"
             d="m 136.50258,253.28687 0.15709,-0.3266 c 0,0 0.0661,-0.4134 0.0661,-0.43407 0,-0.0207 0.14056,-0.72347 0.14056,-0.74001 0,-0.0165 0.008,-0.57464 0.008,-0.57464 l 0.0124,-0.16123 0.0703,0.0372 0.0413,0.68627 0.0331,0.43408 c 0,0 -0.0992,0.49609 -0.11162,0.51676 -0.0124,0.0207 -0.0909,0.29766 -0.13229,0.37207 -0.0413,0.0744 -0.14883,0.25632 -0.17363,0.27286 -0.0248,0.0165 -0.34727,0.17363 -0.34727,0.17363 z"
             id="path22260-9"
             sodipodi:nodetypes="ccsscccccscscc" />
          <path
             style="fill:url(#radialGradient42736);fill-opacity:1;stroke:none;stroke-width:0.264583"
             d="m 134.98174,256.97198 0.0372,-0.85989 0.062,-0.45475 -0.34313,-0.008 c 0,0 0.0413,0.34313 0.0413,0.36794 0,0.0248 0.0579,0.89296 0.0579,0.89296 l 0.0331,0.0786 0.0661,0.008 z"
             id="path24279" />
          <path
             style="fill:#972228;fill-opacity:1;stroke:none;stroke-width:0.264583"
             d="m 133.31237,260.90095 c 0.58467,-0.29244 1.09144,-0.61837 1.50109,-0.99538 l 0.0628,-0.49549 c 0.0773,-0.11241 0.11731,-0.0545 0.16079,-0.0127 0,0 0.057,0.47065 0.0629,0.49988 1.25935,1.11887 2.99274,1.68753 4.48574,1.39301 -1.53839,0.57546 -3.34373,-0.27994 -4.31473,-1.00267 -0.23096,-0.1833 -0.40376,-0.13393 -0.56127,-0.0234 -1.26571,0.68679 -2.82724,1.87403 -4.11053,1.25803 0.96329,0.053 2.0146,-0.27387 2.71321,-0.62128 z"
             id="path24344"
             sodipodi:nodetypes="cccccccccc" />
          <path
             style="fill:url(#radialGradient39503);fill-opacity:1;stroke:none;stroke-width:0.355965"
             d="m 131.61165,262.32226 c 0,0 0.72805,4.84737 0.72805,5.05063 0,0.20328 1.37697,0.60985 1.37697,0.60985 l 1.45609,-0.39094 0.0792,-2.65823 0.14244,-3.73715 -3.79851,1.03202 z"
             id="path38653" />
          <path
             style="fill:url(#radialGradient39503-1);fill-opacity:1;stroke:none;stroke-width:0.355965"
             d="m 138.14391,262.15065 c 0,0 -0.72805,4.84737 -0.72805,5.05063 0,0.20328 -1.37697,0.60985 -1.37697,0.60985 l -1.45609,-0.39094 -0.0792,-2.65823 -0.14244,-3.73715 3.79851,1.03202 z"
             id="path38653-2" />
          <path
             style="fill:#ffe1ce;fill-opacity:1;stroke:none;stroke-width:0.264583"
             d="m 138.12683,266.59925 c 0.78321,-0.58126 1.61323,-0.96953 2.39779,-0.64492 0.77827,1.38877 0.51657,3.14135 0.20667,4.49791 -0.37952,0.89731 -0.94332,1.67063 -1.49655,2.46394 -0.45219,0.5267 -0.47618,1.39993 -0.59532,1.97609 -0.35471,0.78412 -0.51724,1.00417 -1.30638,1.1493 -0.89716,-0.0275 -1.24494,-0.61706 -1.24023,-1.27331 -0.35345,-1.06485 -0.19971,-2.15645 -0.15708,-3.25768 0.14596,-1.31333 0.53086,-2.50903 1.01699,-3.72071 l 0.7028,-0.77721 0.1571,-0.1819 -0.90124,0.71932 -0.79375,1.00047 c -0.92271,1.79717 -0.72186,3.32774 -0.74415,5.27513 l -0.0579,1.33117 -0.11575,0.66146 c -0.14559,1.02272 -0.17463,2.05396 -0.0163,3.05925 -0.0178,0.42876 0.0785,0.61727 0.27188,0.87196 1.49045,0.76547 1.75545,0.54656 2.05154,0.11231 l 0.91777,-2.0588 0.7028,-1.70326 0.26458,-1.2981 0.27286,-1.28157 c 1.01966,-1.34652 1.58534,-3.08912 1.70325,-4.63022 l 0.0745,-1.55443 c -0.0259,-0.82822 -0.48604,-1.82676 -1.11621,-2.00091 l -0.67799,0.1075 -1.00046,0.64492 z"
             id="path11195"
             sodipodi:nodetypes="ccccccccccccccccccccccccccccc" />
        </g>
      </g>
      <circle
         style="fill:#c5b7bf;fill-opacity:1;stroke-width:0;stroke-linecap:round;stroke-linejoin:bevel;paint-order:markers stroke fill"
         id="circle932"
         cx="154.0307"
         cy="257.2804"
         r="1.035058" />
    </g>
  </g>
</svg>
