<?xml version="1.0" encoding="UTF-8" standalone="no"?>
<!-- Created with Inkscape (http://www.inkscape.org/) -->

<svg
   width="128"
   height="128"
   viewBox="0 0 33.866666 33.866666"
   version="1.1"
   id="svg18180"
   inkscape:version="1.2 (dc2aedaf03, 2022-05-15)"
   sodipodi:docname="head Bob.svg"
   xmlns:inkscape="http://www.inkscape.org/namespaces/inkscape"
   xmlns:sodipodi="http://sodipodi.sourceforge.net/DTD/sodipodi-0.dtd"
   xmlns:xlink="http://www.w3.org/1999/xlink"
   xmlns="http://www.w3.org/2000/svg"
   xmlns:svg="http://www.w3.org/2000/svg">
  <sodipodi:namedview
     id="namedview18182"
     pagecolor="#ffffff"
     bordercolor="#000000"
     borderopacity="0.25"
     inkscape:showpageshadow="2"
     inkscape:pageopacity="0.0"
     inkscape:pagecheckerboard="0"
     inkscape:deskcolor="#d1d1d1"
     inkscape:document-units="px"
     showgrid="false"
     inkscape:zoom="2.8284271"
     inkscape:cx="-26.339728"
     inkscape:cy="54.800776"
     inkscape:window-width="1920"
     inkscape:window-height="1017"
     inkscape:window-x="-8"
     inkscape:window-y="-8"
     inkscape:window-maximized="1"
     inkscape:current-layer="layer1" />
  <defs
     id="defs18177">
    <radialGradient
       inkscape:collect="always"
       xlink:href="#linearGradient39266"
       id="radialGradient39268"
       cx="82.482712"
       cy="169.64322"
       fx="82.482712"
       fy="169.64322"
       r="0.51449507"
       gradientTransform="matrix(2.189084,0,0,3.951631,-133.29164,-644.02429)"
       gradientUnits="userSpaceOnUse" />
    <linearGradient
       inkscape:collect="always"
       id="linearGradient39266">
      <stop
         style="stop-color:#ffd3b7;stop-opacity:1"
         offset="0"
         id="stop39262" />
      <stop
         style="stop-color:#ffd3b7;stop-opacity:0"
         offset="1"
         id="stop39264" />
    </linearGradient>
  </defs>
  <g
     inkscape:label="Слой 1"
     inkscape:groupmode="layer"
     id="layer1">
    <g
       id="g1646"
       transform="translate(-30.457024,0.02145219)">
      <ellipse
         style="fill:#fffbe9;fill-opacity:1;stroke:#c8b7c4;stroke-width:0.669028;stroke-opacity:1"
         id="ellipse976"
         cx="-61.202007"
         cy="-19.906462"
         rx="2.965518"
         ry="3.5380147"
         transform="matrix(-0.77258088,-0.63491636,-0.567245,0.82354909,0,0)" />
      <ellipse
         style="fill:#ffe1ce;fill-opacity:1;stroke:#c8b7c4;stroke-width:0.669028;stroke-opacity:1"
         id="path560"
         cx="17.138956"
         cy="40.490616"
         rx="2.965518"
         ry="3.5380147"
         transform="matrix(0.77258088,-0.63491637,0.567245,0.82354909,0,0)" />
      <path
         id="path35694"
         style="fill:#fffbe9;fill-opacity:1;stroke:#c8b7c4;stroke-width:0.893352;stroke-opacity:1"
         d="m 47.269433,0.4528344 c -7.56775,4.378e-4 -13.702486,5.9026488 -13.702727,13.1835456 0.01095,3.87424 1.208791,7.58649 2.564513,11.29874 1.642143,5.79976 3.18444,5.38428 8.735454,8.17886 1.59013,0.4144 2.83257,0.39032 4.46613,0.0963 6.82662,-2.93315 6.78995,-2.3537 9.14269,-8.47635 1.43862,-3.7591 2.321276,-7.02653 2.497786,-11.09867 C 60.973039,6.3541692 54.837603,0.4517398 47.269433,0.4519587 Z" />
      <path
         id="path35696"
         style="fill:#ffe1ce;fill-opacity:1;stroke:none;stroke-width:0.579195"
         d="M 46.959173,0.6435037 C 43.060003,0.5493727 40.077045,2.0429853 36.423922,5.8482722 32.607734,11.3582 33.678525,17.34644 35.527995,22.09522 c 1.038502,2.66653 1.401212,5.41514 3.410682,7.4742 1.426126,1.46121 3.975706,1.94522 5.926576,3.07128 1.30677,0.36821 3.01494,0.53698 4.19463,0.13573 1.93524,-0.69635 4.946054,-1.574736 6.529664,-3.284186 1.41901,-1.53171 1.845606,-3.689154 2.545166,-5.302064 1.62168,-4.17853 2.570836,-8.18806 2.23646,-11.93446 -0.52763,-5.9114018 -4.76148,-10.8164838 -12.619,-11.5739074 -0.26856,-0.021891 -0.53304,-0.032836 -0.793,-0.039403 z m 5.875464,2.0989576 c 5.220404,2.4532906 6.992197,7.3108647 5.924536,11.2870787 -0.22171,6.76055 -1.93681,11.09822 -3.30547,13.95607 -2.70696,3.46051 -6.30774,4.67545 -8.46962,4.58044 -2.81514,-0.12477 -6.42577,-1.91457 -8.465075,-5.24001 C 36.261229,22.74385 35.443234,17.99047 35.12076,13.59501 34.784546,5.267724 42.36511,1.1600438 52.834637,2.7424613 Z"
         sodipodi:nodetypes="ccssccscsccccccsccc" />
      <path
         style="fill:url(#radialGradient39268);fill-opacity:1;stroke:#000000;stroke-width:0;stroke-dasharray:none"
         d="m 46.414683,24.31014 -0.27096,4.06601 2.25254,-0.0963 -0.40955,-3.87709 z"
         id="path38953"
         sodipodi:nodetypes="ccccc" />
      <path
         style="fill:#f1acab;fill-opacity:1;stroke:#000000;stroke-width:0;stroke-dasharray:none"
         d="m 47.067203,31.417 c -0.18716,-0.0219 -0.37006,-0.0657 -0.51145,-0.12915 -0.0959,-0.0416 -0.10771,-0.0504 -0.10771,-0.0701 0,-0.0219 1.04884,-0.0219 1.31131,0.001 0.10157,0 0.1933,0.0219 0.2038,0.0219 0.0197,0 0.0197,0 -0.009,0.0219 -0.0775,0.0525 -0.24437,0.10946 -0.40406,0.13792 -0.11099,0.0219 -0.36777,0.0263 -0.48423,0.0219 z"
         id="path42322" />
      <path
         style="fill:#f1acab;fill-opacity:1;stroke:#000000;stroke-width:0;stroke-dasharray:none"
         d="m 47.921583,30.5439 c 0.0718,-0.0219 0.70083,-0.15324 0.80308,-0.1817 0.23682,-0.0657 0.51399,-0.19483 0.63064,-0.29334 0.11451,-0.0963 0.16509,-0.2189 0.15043,-0.36119 -0.005,-0.0547 -0.0326,-0.16856 -0.0399,-0.16856 -0.002,0 -0.0213,0.0832 -0.0423,0.18607 -0.0209,0.10289 -0.0407,0.19045 -0.0438,0.19483 -0.003,0 -0.0937,0.0482 -0.2015,0.0985 -0.19147,0.0876 -0.20519,0.0941 -0.60827,0.21672 l -0.41237,0.12477 -0.29383,0.0503 c -0.35405,0.0613 -0.34278,0.0591 -0.34278,0.0744 0,0.0219 0.0723,0.046 0.14021,0.0613 0.0572,0 0.18278,0 0.2603,-6.6e-4 z"
         id="path42324" />
      <g
         id="g1217"
         transform="translate(30.334855,-0.00818951)">
        <ellipse
           style="fill:#ffcd7b;fill-opacity:1;stroke:#fdcbb8;stroke-width:0"
           id="path1692"
           cx="24.593149"
           cy="31.364401"
           rx="3.1519151"
           ry="1.360317"
           transform="matrix(-0.0527377,0.9986084,0.9610786,-0.2762752,0,0)" />
        <path
           id="circle1746"
           style="fill:#3e2500;fill-opacity:1;stroke:#fdcbb8;stroke-width:0"
           d="m 27.53428,16.26183 c 0.12058,-1.78831 0.76598,-3.2933 1.47701,-3.52089 l -0.16604,3.14404 z"
           sodipodi:nodetypes="cccc" />
        <path
           id="path1754"
           style="fill:#3e2500;fill-opacity:1;stroke:#fdcbb8;stroke-width:0"
           d="m 30.16783,15.50822 c -0.11852,1.7664 -0.76485,3.32402 -1.49244,3.52533 l 0.16604,-3.14404 z"
           sodipodi:nodetypes="cccc" />
      </g>
      <path
         style="fill:#ffe1ce;fill-opacity:1;stroke:none;stroke-width:0.600001"
         d="m 45.038455,1.9221218 -2.425734,-0.3777362 -5.066394,3.3320405 -3.512385,7.3199449 0.05715,5.188365 3.217633,9.225776 c 1.785088,3.675455 1.982828,3.348017 5.555815,5.027363 l 3.510751,1.367312 2.534295,-0.261168 0.243981,-0.324432 -2.004575,0.189261 c -0.780184,-0.28828 -0.775768,-0.252752 -0.243351,-0.851723 l -1.108568,-0.987528 c -0.440402,-1.007206 0.102575,-0.793837 0.78934,-1.453467 0.149066,-0.143176 -0.06582,-1.172881 0.07588,-1.330926 -0.54883,-1.17619 -0.294871,-2.352379 0.06084,-3.528569 -0.531347,-3.320348 -0.33662,-3.515827 -2.555171,-5.657878 L 39.365495,17.166585 38.432692,14.071258 C 38.118131,9.8352814 37.049095,5.2764473 45.038455,1.9221218 Z"
         id="path7721"
         sodipodi:nodetypes="cccccccccccccscccccc" />
      <path
         style="fill:#f1acab;fill-opacity:1;stroke:#000000;stroke-width:0;stroke-dasharray:none"
         d="m 46.421973,30.55309 c -0.0718,0 -0.70083,-0.15324 -0.80306,-0.18169 -0.23684,-0.0657 -0.51401,-0.19483 -0.63066,-0.29334 -0.1145,-0.0963 -0.16508,-0.21891 -0.15042,-0.3612 0.005,-0.0547 0.0326,-0.16856 0.0397,-0.16856 0.002,0 0.0213,0.0832 0.0423,0.18607 0.0209,0.10289 0.0407,0.19045 0.0438,0.19483 0.003,0 0.0937,0.0482 0.2015,0.0985 0.19147,0.0876 0.20519,0.0941 0.60827,0.21672 l 0.41237,0.12478 0.29383,0.0503 c 0.35405,0.0613 0.34278,0.0591 0.34278,0.0744 0,0.0219 -0.0723,0.046 -0.14021,0.0591 -0.0572,0.0219 -0.18278,0.0219 -0.26028,-4.4e-4 z"
         id="path42318" />
      <g
         id="g1212"
         transform="translate(30.334855,-0.00818951)">
        <ellipse
           style="fill:#ffcd7b;fill-opacity:1;stroke:#fdcbb8;stroke-width:0"
           id="ellipse1777"
           cx="15.2151"
           cy="-4.2484379"
           rx="3.1519151"
           ry="1.360317"
           transform="matrix(0.0527377,0.9986084,-0.9610786,-0.2762752,0,0)" />
        <path
           id="path1779"
           style="fill:#3e2500;fill-opacity:1;stroke:#fdcbb8;stroke-width:0"
           d="M 6.197883,16.73577 C 6.077296,14.94746 5.431905,13.44247 4.720868,13.21488 l 0.16604,3.14404 z"
           sodipodi:nodetypes="cccc" />
        <path
           id="path1781"
           style="fill:#3e2500;fill-opacity:1;stroke:#fdcbb8;stroke-width:0"
           d="m 3.564334,15.98216 c 0.118512,1.7664 0.764848,3.32402 1.492431,3.52533 l -0.16604,-3.14404 z"
           sodipodi:nodetypes="cccc" />
      </g>
      <g
         id="g1245"
         transform="translate(30.334855,-0.00818951)">
        <path
           style="fill:#552200;fill-opacity:1;stroke:#fdcbb8;stroke-width:0"
           d="m 14.9871,19.21257 c -1.94245,-0.87242 -3.91442,-1.5985 -5.974018,-2.16026 -1.215993,0.11367 -1.900826,0.73786 -2.478679,1.33993 l 1.101592,-0.2999 c 1.309094,-0.43466 2.190639,-0.0827 3.453085,0.2999 1.37221,0.30424 3.05066,1.10948 3.89802,0.82033 z"
           id="path599"
           sodipodi:nodetypes="cccccc" />
        <path
           style="fill:#552200;fill-opacity:1;stroke:#fdcbb8;stroke-width:0"
           d="m 18.88321,19.21257 c 1.94246,-0.87242 3.91441,-1.5985 5.97401,-2.16026 1.21599,0.11367 1.90083,0.73786 2.47868,1.33993 l -1.10159,-0.2999 c -1.3091,-0.43466 -2.19064,-0.0827 -3.45309,0.2999 -1.3722,0.30424 -3.05066,1.10948 -3.89801,0.82033 z"
           id="path1680"
           sodipodi:nodetypes="cccccc" />
      </g>
      <path
         style="fill:#fffbe9;fill-opacity:1;stroke:none;stroke-width:0.600001"
         d="m 42.768694,20.13718 c 2.4975,1.025781 2.474197,2.306356 2.673155,4.541929 l -2.916505,0.08171 c -1.779161,0.229715 -2.897382,-0.02129 -4.380294,-0.851724 l -0.304186,-1.581772 c 1.535692,-2.295738 2.493186,-2.810745 4.92783,-2.190143 z"
         id="path9577"
         sodipodi:nodetypes="cccccc" />
      <g
         id="g5048"
         transform="translate(30.478296,0.00561029)">
        <g
           id="g1207"
           transform="matrix(0.77220103,0,0,1,5.2015706,-0.06057248)">
          <path
             style="fill:#2b1100;fill-opacity:1;stroke:#fdcbb8;stroke-width:0"
             d="m 24.8453,24.50689 c 0.11033,0.0233 0.16353,0.0652 0.12346,0.14212 -1.51447,0.21901 -2.65102,0.2458 -4.06791,0.10018 -0.10726,-0.0815 -0.0657,-0.13513 0.0663,-0.17241 1.17948,0.23579 2.94949,0.0489 3.87827,-0.0699 z"
             id="path2626"
             sodipodi:nodetypes="ccccc" />
          <path
             style="fill:#ffffff;fill-opacity:1;stroke:#fdcbb8;stroke-width:0"
             d="m 18.39338,22.37442 c -0.55231,2.12926 2.35948,2.11087 4.28592,2.24624 1.32481,0 2.19572,-0.43424 3.38308,-0.83789 l 0.43652,-0.22384 0.37701,-0.60662 0.26787,-0.83066 -1.11117,-0.9677 -1.93461,-0.61385 -2.17271,-0.12194 -1.16076,0.18808 -1.52785,0.71492 -0.59528,0.62832 z"
             id="path1662"
             sodipodi:nodetypes="ccccccccccccc" />
          <path
             style="fill:#552200;stroke:#fdcbb8;stroke-width:0"
             d="m 18.6669,22.41038 c 0.96116,-1.38209 2.27963,-1.61234 4.00811,-1.87545 l 1.52785,0.26063 1.25005,0.51299 c 0.75535,0.43797 1.34371,0.83501 1.47,1.3513 0.26378,0.10128 -0.59596,1.58878 -0.40444,1.54331 0.0889,-0.0269 0.2767,-0.18395 0.54167,-0.44726 l 0.5159,-1.07641 c -2.0413,-3.395 -7.05056,-3.24246 -9.0282,-0.74841 -0.21409,0.63287 -0.39756,1.45671 0.11909,0.4793 z"
             id="path1664"
             sodipodi:nodetypes="cccccccccc" />
          <ellipse
             style="fill:#552200;stroke:#fdcbb8;stroke-width:0"
             id="ellipse1666"
             cx="22.77354"
             cy="22.42507"
             rx="2.5348361"
             ry="2.195504" />
          <path
             id="path1668"
             style="fill:#552200;fill-opacity:1;stroke:#fdcbb8;stroke-width:0"
             d="m 25.36441,20.98488 c 0.0637,0.25485 -0.009,0.73828 -0.009,1.00325 0,1.60738 -1.11923,2.39671 -2.53936,2.39671 -1.4201,0 -2.57134,-0.46297 -2.57134,-2.07036 6e-5,-0.26517 -0.0276,-1.13201 0.0355,-1.38726 1.411,-0.47537 3.22608,-0.97906 5.08376,0.0579 z"
             sodipodi:nodetypes="ccscccc" />
          <ellipse
             style="fill:#aa4400;stroke:#fdcbb8;stroke-width:0"
             id="ellipse1670"
             cx="22.742331"
             cy="22.84856"
             rx="1.997017"
             ry="1.729682" />
          <path
             id="path1672"
             style="fill:#ff9e00;fill-opacity:1;stroke:#fdcbb8;stroke-width:0"
             d="m 21.69447,24.32201 c 0.53156,0.2538 1.27775,0.40076 2.00315,0.0331 0.0271,-1.79795 -2.13456,-1.56026 -2.00315,-0.0331 z"
             sodipodi:nodetypes="ccc" />
          <ellipse
             style="fill:#552200;stroke:#fdcbb8;stroke-width:0"
             id="ellipse1674"
             cx="22.65394"
             cy="22.874201"
             rx="0.58786088"
             ry="0.58066022" />
          <ellipse
             style="fill:#ff9e00;fill-opacity:1;stroke:#fdcbb8;stroke-width:0"
             id="ellipse1676"
             cx="32.307781"
             cy="4.2745891"
             rx="0.2136258"
             ry="0.2575776"
             transform="matrix(0.7961064,0.6051567,-0.820341,0.5718747,0,0)" />
          <ellipse
             style="fill:#ffffff;stroke:#fdcbb8;stroke-width:0"
             id="ellipse1678"
             cx="-1.57995"
             cy="32.521561"
             rx="0.54933602"
             ry="0.59295869"
             transform="matrix(-0.885459,0.4647176,0.7036935,0.7105037,0,0)" />
        </g>
        <g
           id="g1195"
           transform="matrix(0.77220107,0,0,1,2.227145,-0.04158614)">
          <path
             style="fill:#ffffff;fill-opacity:1;stroke:#fdcbb8;stroke-width:0"
             d="m 15.47692,22.37442 c 0.55231,2.12926 -2.35946,2.11087 -4.2859,2.24624 -1.324829,0 -2.195735,-0.43424 -3.383095,-0.83789 L 7.3714,23.55893 6.994396,22.95231 6.726539,22.12165 l 1.111158,-0.9677 1.934604,-0.61385 2.172709,-0.12194 1.16079,0.18808 1.52782,0.71492 0.59528,0.62832 z"
             id="path1338"
             sodipodi:nodetypes="ccccccccccccc" />
          <path
             style="fill:#552200;stroke:#fdcbb8;stroke-width:0"
             d="m 15.2034,22.41038 c -0.96116,-1.38209 -2.27963,-1.61234 -4.00811,-1.87545 l -1.527846,0.26063 -1.250056,0.51299 c -0.755343,0.43797 -1.343704,0.83501 -1.469992,1.3513 -0.263785,0.10128 0.595956,1.58878 0.404433,1.54331 -0.08888,-0.0269 -0.2767,-0.18395 -0.541667,-0.44726 L 6.294261,22.67949 c 2.041299,-3.395 7.050559,-3.24246 9.028199,-0.74841 0.21431,0.63287 0.39756,1.45671 -0.11908,0.4793 z"
             id="path1340"
             sodipodi:nodetypes="cccccccccc" />
          <ellipse
             style="fill:#552200;stroke:#fdcbb8;stroke-width:0"
             id="ellipse1342"
             cx="-11.09676"
             cy="22.42507"
             rx="2.5348361"
             ry="2.195504"
             transform="scale(-1,1)" />
          <path
             id="path2566"
             style="fill:#552200;fill-opacity:1;stroke:#fdcbb8;stroke-width:0"
             d="m 8.505893,20.98488 c -0.0637,0.25485 0.0088,0.73828 0.0088,1.00325 0,1.60738 1.119236,2.39671 2.539357,2.39671 1.4201,0 2.57134,-0.46297 2.57134,-2.07036 -6e-5,-0.26517 0.0276,-1.13201 -0.0355,-1.38726 -1.411,-0.47537 -3.22608,-0.97906 -5.08373,0.0579 z"
             sodipodi:nodetypes="ccscccc" />
          <ellipse
             style="fill:#aa4400;stroke:#fdcbb8;stroke-width:0"
             id="ellipse1344"
             cx="-11.12798"
             cy="22.84856"
             rx="1.997017"
             ry="1.729682"
             transform="scale(-1,1)" />
          <path
             id="path1346"
             style="fill:#ff9e00;fill-opacity:1;stroke:#fdcbb8;stroke-width:0"
             d="m 12.17583,24.32201 c -0.53153,0.2538 -1.27775,0.40076 -2.00315,0.0331 -0.0271,-1.79795 2.13456,-1.56026 2.00315,-0.0331 z"
             sodipodi:nodetypes="ccc" />
          <ellipse
             style="fill:#552200;stroke:#fdcbb8;stroke-width:0"
             id="ellipse1348"
             cx="-11.21635"
             cy="22.874201"
             rx="0.58786088"
             ry="0.58066022"
             transform="scale(-1,1)" />
          <ellipse
             style="fill:#ff9e00;fill-opacity:1;stroke:#fdcbb8;stroke-width:0"
             id="ellipse1350"
             cx="11.95522"
             cy="25.811541"
             rx="0.2136258"
             ry="0.2575776"
             transform="matrix(-0.7961064,0.6051567,0.820341,0.5718747,0,0)" />
          <ellipse
             style="fill:#ffffff;stroke:#fdcbb8;stroke-width:0"
             id="ellipse1352"
             cx="6.961709"
             cy="26.83589"
             rx="0.54933602"
             ry="0.59295869"
             transform="matrix(-0.885459,0.4647176,0.7036935,0.7105037,0,0)" />
          <path
             style="fill:#2b1100;fill-opacity:1;stroke:#fdcbb8;stroke-width:0"
             d="m 13.15281,24.46821 c 0.11033,0.0233 0.16352,0.0652 0.12324,0.14212 -1.51447,0.22134 -2.65102,0.24581 -4.067909,0.10019 -0.107265,-0.0816 -0.06567,-0.13513 0.06633,-0.17241 1.179479,0.23601 2.949509,0.0489 3.878289,-0.0699 z"
             id="path1704"
             sodipodi:nodetypes="ccccc" />
        </g>
      </g>
      <path
         style="fill:#fffbe9;fill-opacity:1;stroke:none;stroke-width:0.694282"
         d="m 40.345002,25.97975 c 0.159945,0.682828 0.719615,1.11298 1.620874,1.396639 0.94564,-0.420044 1.28938,-0.817651 1.546994,-1.467037 z"
         id="path8969"
         sodipodi:nodetypes="cccc" />
    </g>
  </g>
</svg>
